<svg width="800" height="500" viewBox="0 0 800 500" xmlns="http://www.w3.org/2000/svg">
  <defs>
    <linearGradient id="bg5" x1="0%" y1="0%" x2="100%" y2="100%">
      <stop offset="0%" stop-color="#0d0d0d"/>
      <stop offset="100%" stop-color="#1a1a1a"/>
    </linearGradient>
  </defs>
  <rect width="800" height="500" fill="url(#bg5)"/>

  <!-- Github mark -->
  <g transform="translate(400,180)">
    <circle r="70" fill="#161616" stroke="#facc15" stroke-opacity="0.3" stroke-width="2"/>
    <path transform="translate(-42,-42) scale(0.33)" fill="#ffffff" d="M128 0C57.3 0 0 57.3 0 128c0 56.6 36.7 104.6 87.6 121.5 6.4 1.2 8.8-2.8 8.8-6.2 0-3-.1-11-.2-21.6-35.6 7.7-43.1-17.2-43.1-17.2-5.8-14.8-14.2-18.7-14.2-18.7-11.6-7.9.9-7.8.9-7.8 12.8.9 19.5 13.2 19.5 13.2 11.4 19.5 29.9 13.9 37.2 10.6 1.1-8.2 4.4-13.9 8.1-17.1-28.4-3.2-58.3-14.2-58.3-63.3 0-14 5-25.5 13.2-34.4-1.3-3.2-5.7-16.2 1.3-33.8 0 0 10.8-3.5 35.3 13.1 10.2-2.8 21.2-4.3 32.1-4.3 10.9 0 21.9 1.5 32.1 4.3 24.5-16.6 35.3-13.1 35.3-13.1 7 17.6 2.6 30.6 1.3 33.8 8.2 8.9 13.2 20.4 13.2 34.4 0 49.2-30 60-58.5 63.2 4.6 4 8.7 11.7 8.7 23.6 0 17-.2 30.7-.2 34.9 0 3.4 2.3 7.4 8.8 6.1C219.4 232.6 256 184.6 256 128 256 57.3 198.7 0 128 0z"/>
  </g>

  <text x="400" y="280" font-family="Arial, sans-serif" font-size="26" font-weight="bold" fill="#fff" text-anchor="middle">github.com/githarsh7</text>
  <text x="400" y="310" font-family="Arial" font-size="14" fill="#999" text-anchor="middle">Explore all repositories, To-Dos &amp; experiments</text>

  <!-- repo chips -->
  <g font-family="monospace" font-size="12" fill="#facc15">
    <rect x="140" y="350" width="140" height="32" rx="16" fill="#1c1c1c" stroke="#facc15" stroke-opacity="0.3"/>
    <text x="160" y="371">To-Do App</text>

    <rect x="300" y="350" width="150" height="32" rx="16" fill="#1c1c1c" stroke="#a855f7" stroke-opacity="0.3"/>
    <text x="320" y="371" fill="#a855f7">Weather App</text>

    <rect x="470" y="350" width="160" height="32" rx="16" fill="#1c1c1c" stroke="#27c93f" stroke-opacity="0.3"/>
    <text x="490" y="371" fill="#27c93f">Landing Pages</text>

    <rect x="220" y="396" width="150" height="32" rx="16" fill="#1c1c1c" stroke="#60a5fa" stroke-opacity="0.3"/>
    <text x="240" y="417" fill="#60a5fa">JS Mini Projects</text>

    <rect x="390" y="396" width="170" height="32" rx="16" fill="#1c1c1c" stroke="#facc15" stroke-opacity="0.3"/>
    <text x="410" y="417">React Components</text>
  </g>
</svg>
